<svg width="158" height="18" viewBox="0 0 158 18" fill="none" xmlns="http://www.w3.org/2000/svg">
<path d="M1.17172 1.02533V15.7317H9.98577V16.4405H0.460693V1.02533H1.17172Z" fill="white"/>
<path d="M10.4463 16.8952H0V0.566162H1.63223V15.2681H10.4463V16.8952Z" fill="white"/>
<path d="M29.2281 1.02527L35.6273 16.4405H34.8626L33.4316 12.9946H23.7456L22.3101 16.4405H21.5454L27.9581 1.02527H29.2281ZM24.0452 12.2813H33.141L28.5931 1.34623L24.0452 12.2813Z" fill="white"/>
<path d="M36.3159 16.8952H34.554L33.123 13.4493H24.0541L22.6186 16.8952H20.8567L27.6495 0.566129H28.4186L28.593 0.147095L28.7674 0.566129H29.5366L36.3159 16.8952ZM24.7338 11.8222H32.4478L28.5885 2.54541L24.7293 11.8222H24.7338Z" fill="white"/>
<path d="M59.6906 1.02533V10.5294C59.6906 12.2502 59.078 13.7168 57.8571 14.9338C56.6363 16.1508 55.1651 16.7615 53.4524 16.7615C51.7396 16.7615 50.255 16.1552 49.0341 14.9338C47.8133 13.7123 47.2007 12.2502 47.2007 10.5294V1.02533H47.9117V10.5294C47.9117 12.054 48.4528 13.3557 49.5395 14.4301C50.6172 15.5133 51.9185 16.0527 53.4524 16.0527C54.9862 16.0527 56.2786 15.5133 57.3652 14.4301C58.443 13.3557 58.9796 12.0585 58.9796 10.5294V1.02533H59.6906Z" fill="white"/>
<path d="M53.4523 17.2162C51.6099 17.2162 50.0134 16.5564 48.7076 15.2547C47.4018 13.9531 46.74 12.3616 46.74 10.525V0.561707H48.3722V10.525C48.3722 11.9381 48.8597 13.1061 49.8614 14.1002C50.8586 15.1032 52.0347 15.5891 53.4478 15.5891C54.8609 15.5891 56.0281 15.1032 57.0342 14.1002C58.0315 13.1061 58.5144 11.9381 58.5144 10.525V0.561707H60.1466V10.525C60.1466 12.3616 59.4848 13.9531 58.179 15.2547C56.8732 16.5564 55.2813 17.2162 53.4478 17.2162H53.4523Z" fill="white"/>
<path d="M84.0176 1.02527V16.4405H82.9175L72.4891 1.4666V16.4405H71.7781V1.02527H73.0481L83.3065 15.7495V1.02527H84.0176Z" fill="white"/>
<path d="M83.7671 17.2162L83.5435 16.8952H82.6804L72.9496 2.9288V16.8952H71.3174V0.566144H72.0284V0L72.4219 0.566144H73.2895L82.8459 14.2829V0.566144H84.4781V16.8952H83.7671V17.2162Z" fill="white"/>
<path d="M104.016 16.0482C105.854 16.0482 107.459 15.433 108.832 14.2027L109.337 14.7064C107.821 16.075 106.046 16.757 104.016 16.757C101.825 16.757 99.9598 15.9858 98.4125 14.4389C96.8608 12.901 96.0872 11.0376 96.0872 8.85326C96.0872 6.66892 96.8608 4.81892 98.4125 3.28097C99.9553 1.7341 101.825 0.962891 104.016 0.962891C106.05 0.962891 107.821 1.64494 109.337 3.0135L108.832 3.51723C107.459 2.28687 105.854 1.67169 104.016 1.67169C102.026 1.67169 100.322 2.37157 98.9089 3.77579C97.5003 5.18446 96.7982 6.87845 96.7982 8.85773C96.7982 10.837 97.5003 12.5399 98.9089 13.9486C100.322 15.3528 102.026 16.0527 104.016 16.0527V16.0482Z" fill="white"/>
<path d="M104.016 17.2162C101.708 17.2162 99.7138 16.3915 98.086 14.7599C96.4538 13.1372 95.6265 11.149 95.6265 8.8488C95.6265 6.54856 96.4538 4.56927 98.0905 2.95108C99.7182 1.32397 101.713 0.499268 104.02 0.499268C106.162 0.499268 108.054 1.23035 109.65 2.67024L110.008 2.99566L108.85 4.15024L108.523 3.86048C107.226 2.69698 105.751 2.13084 104.016 2.13084C102.138 2.13084 100.572 2.77723 99.2353 4.10121C97.9071 5.4341 97.2587 6.98988 97.2587 8.85772C97.2587 10.7256 97.9071 12.2903 99.2353 13.6276C100.572 14.9516 102.138 15.598 104.016 15.598C105.755 15.598 107.226 15.0318 108.523 13.8683L108.85 13.5786L110.008 14.7331L109.65 15.0586C108.054 16.4984 106.158 17.2295 104.02 17.2295L104.016 17.2162Z" fill="white"/>
<path d="M134.424 1.02533V16.4405H133.713V9.09402H122.153V16.4405H121.442V1.02533H122.153V8.38076H133.713V1.02533H134.424Z" fill="white"/>
<path d="M134.885 16.8952H133.253V9.54871H122.61V16.8952H120.977V0.566162H122.61V7.9216H133.253V0.566162H134.885V16.8952Z" fill="white"/>
<path d="M156.976 1.02533L151.985 8.5992L157.146 16.4405H156.296L151.565 9.2545L146.834 16.4405H145.984L151.136 8.5992L146.159 1.02533H146.999L151.569 7.95281L156.126 1.02533H156.976Z" fill="white"/>
<path d="M158 16.8952H156.046L151.565 10.0881L147.084 16.8952H145.135L150.586 8.59473L145.304 0.566162H147.245L151.565 7.11473L155.876 0.566162H157.826L152.535 8.59473L158 16.8952Z" fill="white"/>
</svg>
